<?xml version="1.0" encoding="utf-8"?>
<!-- Generator: Adobe Illustrator 16.0.0, SVG Export Plug-In . SVG Version: 6.00 Build 0)  -->
<!DOCTYPE svg PUBLIC "-//W3C//DTD SVG 1.1//EN" "http://www.w3.org/Graphics/SVG/1.1/DTD/svg11.dtd">
<svg version="1.1" id="logo" xmlns="http://www.w3.org/2000/svg" xmlns:xlink="http://www.w3.org/1999/xlink" x="0px" y="0px"
	 width="265.629px" height="80.27px" viewBox="0 0 265.629 80.27" enable-background="new 0 0 265.629 80.27" xml:space="preserve">
<g>
	<path fill="#EB1F26" d="M79.192,28.048c0,0,0.24,0,0.63-1.711c0.39-1.711-3.512-9.307-3.633-9.727
		c-0.12-0.42-6.514-4.773-6.845-5.014c-0.33-0.24-0.15-1.2-1.14-2.311C67.213,8.174,47.939,3.611,47.578,3.19
		c-0.36-0.42-0.54-1.501-1.05-0.9c-0.511,0.6-1.111,0.45-1.892,0.18c-0.78-0.27-0.69-1.441-2.461-2.282
		c-1.772-0.841-3.003,1.411-3.003,1.411s-2.852-0.39-9.997,0.27c-7.145,0.661-13.66,7.536-13.72,7.686
		c-0.06,0.15,0.57,1.111-1.201,1.921c-1.771,0.811-7.235,6.275-7.806,7.356c-0.57,1.081-3.452,6.214-3.752,6.454
		c-0.301,0.241-0.751,0.871-0.751,0.871s-0.09,2.102-0.09,2.491c0,0.391,0.24,0.511-0.961,3.664
		c-1.201,3.151-1.351,10.412,0.541,15.101c5.704,14.14,12.969,20.354,16.752,22.546s8.676,2.912,10.177,3.333
		c1.502,0.42,2.462,1.351,2.762,1.351c0.301,0,0.271-0.841,0.271-0.841s0.42,0.03,3.482,0.66c3.062,0.631,10.043,0.541,10.133,0.451
		c0.09-0.091,3.422,0.06,5.058,1.021c1.434,0.842,2.672-0.781,2.762-1.111s0.631-0.9,2.042-1.2s9.817-4.804,9.817-4.804
		s2.402-1.621,6.515-6.875c4.113-5.254,6.545-13.87,8.316-19.274C81.293,37.266,79.192,28.048,79.192,28.048 M66.695,28.725
		c-2.702,1.08-5.179,1.801-6.17,2.543c-0.99,0.743-5.876,4.233-6.822,5.607c-0.946,1.373-1.036,1.824-1.036,1.824
		s-1.148,0.021-1.441,0.428c-0.293,0.405-1.756,2.341-1.981,2.837c-0.225,0.495-0.991,1.892-0.991,1.892s-0.878,1.846-1.779,1.914
		c-0.9,0.066-2.184-0.136-2.522,0.473c-0.337,0.607-0.473,2.004-0.473,2.004s-0.315,1.756-1.328,1.756
		c-1.013,0-1.171,0.225-1.171,0.225s-0.45,3.625-0.045,4.571c0.405,0.946,0.518,2.634,0.698,2.927
		c0.18,0.293,0.833,0.834,0.518,2.229s-0.968,3.04-1.531,3.423s-0.946,0.45-0.946,0.45s-1.756,0.293-1.824-1.509
		c-0.067-1.801,1.014-2.274,1.194-3.063s0.135-3.67,0.247-4.165c0.113-0.496,0.316-2.184,0.203-2.657
		c-0.112-0.473-0.338-0.968-0.225-1.328c0.113-0.36,0.135-1.283,0.135-1.283s-1.306-0.383-1.171-1.127
		c0.135-0.742,0.18-1.485,0.18-1.485s-1.035-1.688-1.351-1.981c-0.315-0.293-1.779-0.473-1.779-0.473l0.181,0.743
		c0,0,0.09,1.351-0.451,0.743c-0.54-0.608-1.824-2.184-2.184-2.86c-0.36-0.675-2.679-2.837-3.287-3.512
		c-0.608-0.677-3.828-3.558-4.436-4.188s-0.135-1.621-1.283-1.688c-1.149-0.068-1.869-0.226-2.455-0.519
		c-0.585-0.293-2.364-1.464-2.409-1.936c-0.045-0.473,0.585-0.473,0.315-1.329s-1.238-2.702-1.441-2.724
		c-0.202-0.023-0.81-1.352-0.81-1.352l-1.014-1.351l-1.823-2.094l-2.072-1.847c0,0,3.985,3.333,5.134,3.625
		c1.148,0.293,2.432,0.496,2.432,0.496s1.576,1.103,2.184,1.418c0.608,0.316,0.653,1.126,1.373,1.06
		c0.721-0.068,0.856-0.631,0.856-0.631s-2.882-1.217-3.715-2.072c-0.834-0.855-0.473-1.396-0.473-1.396s4.818,2.095,5.224,2.814
		c0.405,0.721,1.666,2.161,2.994,2.995c1.329,0.832,4.639,3.399,5.044,4.255s4.053,5.044,4.458,5.358
		c0.405,0.316,1.216,0.541,1.239,0.316c0.022-0.227,0.022-0.631-0.113-2.477c-0.135-1.848,0.248-3.514-0.675-4.595
		c-0.924-1.079-0.563-0.989-0.316-1.237c0.248-0.248,0.541-0.676,0.023-1.193s-1.779-1.194-1.171-3.085
		c0.608-1.892,2.116-3.107,3.4-5.314c1.283-2.207,2.252-3.49,2.252-3.49s-1.532,3.085-1.532,4.841c0,1.756-0.855,6.44-0.517,7.228
		c0.337,0.788,1.035,1.981,0.9,2.251c-0.135,0.271,0.473,3.355,0.383,4.437c-0.09,1.08-0.563,2.184,0.428,2.273
		c0.991,0.09,1.306,0.541,1.508-0.652c0.203-1.193,1.126-3.197,1.126-3.197l1.126-0.608l0.676-1.464l0.833-1.238
		c0,0,2.454-1.192,4.21-1.44c1.757-0.248,1.261-0.878,1.284-0.991c0.022-0.111,2.386-0.27,2.386-0.27s1.081-1.307,2.365-2.116
		c1.283-0.812,3.67-1.464,3.873-1.532c0.202-0.066,2.003,0.833,3.445-0.021c1.441-0.856,2.274-0.744,2.431-0.744
		c0.158,0,0.946,0.992,0.721,1.217s-1.509,0.428-1.509,0.428s-2.229-0.09-2.296,0.495c-0.068,0.585,0.45,0.878,0.45,0.878
		l1.013-0.72l0.833,0.606l0.811,0.203l2.612-1.98C69.825,25.572,69.397,27.643,66.695,28.725"/>
	<path fill="#000101" d="M109.15,31.338l0.094-8.066v-3.511c0-0.823,0.04-1.787,0.119-2.895c0.079-1.107,0.087-1.786,0.024-2.039
		c-0.127-0.191-1.345-0.269-3.654-0.238l-6.643,0.047c-0.094,0-0.315,0.017-0.664,0.048c-0.348,0.032-0.64,0.04-0.877,0.024
		c-0.238-0.016-0.483-0.055-0.736-0.119c-0.6-0.095-0.901-0.434-0.901-1.02c0-0.585,0.048-1.044,0.142-1.376
		c0.096-0.332,0.229-0.577,0.404-0.735c0.173-0.158,0.41-0.253,0.711-0.285c0.301-0.031,0.664-0.039,1.091-0.024
		c0.428,0.016,1.06-0.007,1.898-0.071c0.838-0.063,3.187-0.095,7.046-0.095l9.538,0.048l8.966-0.048l1.994-0.047h0.711
		c0.601,0,0.979,0.189,1.138,0.569c0.033,0.127,0.049,0.301,0.049,0.522c0,1.107-0.159,1.788-0.475,2.04
		c-0.222,0.222-1.013,0.332-2.372,0.332h-2.23c-1.488,0-2.807,0.041-3.962,0.119c-1.156,0.079-2.966,0.118-5.434,0.118
		c-0.474,0-0.758,0.088-0.853,0.261c-0.096,0.175-0.143,0.53-0.143,1.068l-0.047,8.588v6.928c0,4.238-0.039,6.982-0.119,8.231
		c-0.079,1.25-0.126,2.058-0.142,2.42c-0.016,0.364-0.031,0.586-0.047,0.663c-0.016,0.08-0.047,0.23-0.096,0.453
		c-0.047,0.22-0.11,0.355-0.189,0.402s-0.182,0.127-0.309,0.238c-0.126,0.111-0.292,0.174-0.498,0.189
		c-0.205,0.016-0.451,0.039-0.736,0.07c-0.283,0.033-0.694,0.049-1.232,0.049c-0.539,0-0.886-0.065-1.045-0.191
		c-0.158-0.126-0.277-0.466-0.355-1.02c-0.079-0.553-0.126-1.359-0.143-2.42c-0.016-1.06-0.032-1.898-0.046-2.515
		c-0.017-0.616-0.025-1.21-0.025-1.78L109.15,31.338z"/>
	<path fill="#000101" d="M144.356,32.477l-10.867,0.047c-1.17,0-1.85,0.096-2.04,0.285c-0.159,0.221-0.236,0.586-0.236,1.092
		c0,2.467,0.703,4.357,2.11,5.67c1.408,1.313,3.013,1.969,4.816,1.969c1.804,0,3.211-0.237,4.223-0.711
		c0.031,0,0.348-0.207,0.949-0.617c0.601-0.411,1.021-0.617,1.258-0.617c0.238,0,0.418,0.096,0.545,0.285
		c0.126,0.189,0.191,0.379,0.191,0.568c0,1.203-0.886,2.224-2.658,3.061c-1.771,0.839-3.835,1.258-6.192,1.258
		s-4.602-0.949-6.738-2.847c-2.134-1.898-3.202-4.46-3.202-7.687s1.003-5.884,3.013-7.972c2.008-2.088,4.705-3.131,8.089-3.131
		c2.468,0,4.46,0.728,5.979,2.182c1.613,1.519,2.42,3.353,2.42,5.505C146.017,31.924,145.462,32.477,144.356,32.477 M132.02,30.152
		c6.01,0,9.49-0.033,10.439-0.096c-0.096-1.264-0.578-2.308-1.447-3.132c-0.871-0.822-1.97-1.233-3.298-1.233
		c-1.33,0-2.571,0.467-3.726,1.399C132.833,28.025,132.176,29.045,132.02,30.152"/>
	<path fill="#000101" d="M164.569,44.244c-0.949,0-1.393-0.523-1.33-1.566c0-0.348-0.047-0.521-0.142-0.521
		c-0.253,0.094-0.759,0.363-1.517,0.807c-3.765,2.309-7.071,2.449-9.918,0.426c-1.297-0.916-1.945-2.182-1.945-3.795
		c0-2.436,1.132-4.206,3.392-5.314c2.263-1.106,5.07-1.66,8.422-1.66c0.601,0,1.044,0.016,1.329,0.047
		c0-0.537,0.015-0.916,0.047-1.139c0-1.803-0.498-3.156-1.493-4.057c-0.998-0.9-2.382-1.352-4.153-1.352
		c-0.854,0-1.772,0.127-2.752,0.379c-0.981,0.254-1.613,0.38-1.898,0.38s-0.514-0.175-0.687-0.522
		c-0.175-0.347-0.262-0.806-0.262-1.375c0-0.57,0.704-1.021,2.111-1.353c1.408-0.332,2.76-0.498,4.058-0.498
		c3.067,0,5.401,0.806,6.998,2.42c1.597,1.612,2.396,3.97,2.396,7.069v9.773c0,0.855-0.159,1.377-0.475,1.566
		C166.434,44.148,165.708,44.244,164.569,44.244 M162.813,39.262c0.063-0.885,0.095-1.834,0.095-2.848
		c0-1.012-0.016-1.58-0.047-1.707c-4.365,0.412-7.023,1.201-7.972,2.371c-0.505,0.603-0.758,1.299-0.758,2.088
		c0,1.678,1.249,2.515,3.748,2.515c1.264,0,2.396-0.291,3.393-0.877C162.267,40.219,162.781,39.705,162.813,39.262"/>
	<path fill="#000101" d="M182.312,38.313c0.601-0.79,1.155-1.684,1.661-2.681s1.439-2.966,2.8-5.907
		c1.358-2.941,2.388-5.077,3.084-6.405c0.095-0.127,0.285-0.19,0.57-0.19c0.282,0,0.655,0.127,1.114,0.379
		c0.457,0.254,0.734,0.476,0.83,0.664c0.031,0.222-0.285,1.062-0.949,2.515c-2.467,5.821-5.092,11.135-7.877,15.943l-0.379,0.711
		c-0.569,0.949-1.043,1.424-1.422,1.424c-0.729,0-1.424-0.602-2.088-1.803c-3.006-5.885-4.865-9.609-5.577-11.174
		c-0.711-1.566-1.274-2.713-1.684-3.44c-0.981-1.803-1.47-3.036-1.47-3.701c0-0.315,0.396-0.647,1.185-0.995
		c0.791-0.349,1.336-0.522,1.637-0.522h0.689c0.157,0,0.386,0.213,0.687,0.64c0.3,0.428,0.617,1.006,0.949,1.732
		c0.332,0.728,0.648,1.367,0.949,1.921s1.059,2.19,2.277,4.911C180.517,35.056,181.521,37.048,182.312,38.313"/>
	<path fill="#000101" d="M198.065,16.914c-0.315-0.095-0.688-0.419-1.115-0.972c-0.426-0.553-0.633-1.076-0.616-1.566
		c0.016-0.49,0.332-0.997,0.948-1.519c0.617-0.522,1.416-0.783,2.396-0.783c1.455,0,2.184,0.697,2.184,2.088
		c0,0.981-0.309,1.708-0.926,2.183c-0.615,0.474-1.17,0.712-1.66,0.712C198.784,17.057,198.381,17.009,198.065,16.914 M201.008,33.9
		l0.143,9.395c0,0.379-0.049,0.617-0.143,0.711c-0.317,0.159-0.981,0.238-1.994,0.238c-1.012,0-1.637-0.071-1.875-0.215
		c-0.235-0.142-0.354-0.575-0.354-1.305l-0.19-8.683c0-3.036,0.017-4.966,0.047-5.788l0.144-2.799c0-0.887,0.142-1.408,0.427-1.566
		s0.83-0.236,1.637-0.236s1.496,0.047,2.064,0.142c0.063,1.392,0.096,2.483,0.096,3.274V33.9z"/>
	<path fill="#000101" d="M216.568,38.313c0.602-0.79,1.154-1.684,1.661-2.681c0.506-0.997,1.438-2.966,2.8-5.907
		c1.359-2.941,2.387-5.077,3.084-6.405c0.096-0.127,0.285-0.19,0.57-0.19c0.283,0,0.654,0.127,1.115,0.379
		c0.457,0.254,0.733,0.476,0.83,0.664c0.029,0.222-0.285,1.062-0.949,2.515c-2.469,5.821-5.094,11.135-7.877,15.943l-0.379,0.711
		c-0.57,0.949-1.045,1.424-1.424,1.424c-0.729,0-1.424-0.602-2.088-1.803c-3.005-5.885-4.863-9.609-5.576-11.174
		c-0.711-1.566-1.273-2.713-1.684-3.44c-0.98-1.803-1.471-3.036-1.471-3.701c0-0.315,0.396-0.647,1.186-0.995
		c0.791-0.349,1.336-0.522,1.637-0.522h0.689c0.157,0,0.387,0.213,0.688,0.64c0.299,0.428,0.617,1.006,0.949,1.732
		c0.332,0.728,0.647,1.367,0.948,1.921c0.3,0.554,1.06,2.19,2.276,4.911C214.773,35.056,215.778,37.048,216.568,38.313"/>
	<path fill="#000101" d="M230.85,39.167l0.332-10.533c0.031-0.253,0.047-0.696,0.047-1.329c0-0.632,0.025-1.106,0.072-1.424
		c0.047-0.314,0.119-0.695,0.213-1.138c0.189-0.79,0.648-1.187,1.377-1.187c1.58,0,2.372,0.349,2.372,1.045
		c0,0.537,0.015,0.916,0.048,1.138c0.188,0,1.106-0.427,2.752-1.281c1.645-0.854,3.051-1.281,4.223-1.281
		c0.474,0,0.799,0.118,0.972,0.356c0.173,0.236,0.263,0.783,0.263,1.637s-0.113,1.503-0.332,1.945
		c-0.19,0.031-0.531,0.08-1.021,0.142c-0.491,0.064-0.854,0.112-1.09,0.144c-0.238,0.031-0.579,0.086-1.021,0.166
		c-0.443,0.078-0.791,0.142-1.045,0.189c-0.252,0.047-0.561,0.111-0.924,0.189c-0.364,0.08-0.665,0.166-0.902,0.261
		c-0.238,0.096-0.482,0.19-0.736,0.285c-0.504,0.19-0.853,0.444-1.043,0.76v3.083l0.095,8.066v0.711v0.783
		c0,0.396-0.007,0.721-0.022,0.973c-0.017,0.255-0.088,0.507-0.214,0.76c-0.254,0.411-0.909,0.617-1.97,0.617
		c-1.059,0-1.684-0.063-1.873-0.191C231.04,43.8,230.85,42.172,230.85,39.167"/>
	<path fill="#000101" d="M263.969,32.477l-10.867,0.047c-1.17,0-1.85,0.096-2.04,0.285c-0.159,0.221-0.235,0.586-0.235,1.092
		c0,2.467,0.703,4.357,2.109,5.67c1.408,1.313,3.014,1.969,4.816,1.969c1.804,0,3.211-0.237,4.223-0.711
		c0.031,0,0.348-0.207,0.949-0.617c0.602-0.411,1.021-0.617,1.258-0.617c0.238,0,0.418,0.096,0.545,0.285
		c0.126,0.189,0.191,0.379,0.191,0.568c0,1.203-0.887,2.224-2.658,3.061c-1.771,0.839-3.835,1.258-6.191,1.258
		c-2.357,0-4.603-0.949-6.738-2.847c-2.135-1.898-3.203-4.46-3.203-7.687s1.004-5.884,3.014-7.972
		c2.008-2.088,4.705-3.131,8.089-3.131c2.468,0,4.46,0.728,5.979,2.182c1.613,1.519,2.42,3.353,2.42,5.505
		C265.629,31.924,265.074,32.477,263.969,32.477 M251.632,30.152c6.01,0,9.489-0.033,10.438-0.096
		c-0.096-1.264-0.578-2.308-1.447-3.132c-0.871-0.822-1.969-1.233-3.297-1.233c-1.33,0-2.571,0.467-3.727,1.399
		C252.445,28.025,251.789,29.045,251.632,30.152"/>
	<path fill="#979797" d="M152.603,68.258c0,0.111-0.112,0.217-0.336,0.316c-0.05,0.063-0.143,0.118-0.28,0.168
		c-0.174,0.075-0.298,0.137-0.373,0.186l-0.392-0.129c-0.198,0.148-0.454,0.223-0.764,0.223l-0.225-0.057l-0.167,0.131h-0.504
		l-0.317,0.224c-0.137-0.048-0.267-0.073-0.391-0.073c-0.038,0.025-0.125,0.051-0.261,0.073c-0.063,0-0.131-0.019-0.206-0.056
		l-0.056,0.709v0.521v0.652l0.009,0.709l0.056,0.336l-0.009,0.261l0.261,0.56c-0.036,0.039-0.055,0.082-0.055,0.132
		c0,0.087,0.136,0.155,0.409,0.204l0.039,0.225l0.13,0.057l0.224,0.148l0.148,0.111c0.125-0.024,0.212-0.036,0.262-0.036
		c0.111,0,0.224,0.019,0.336,0.056c0.048-0.025,0.154-0.111,0.317-0.261c0.112-0.099,0.218-0.149,0.316-0.149h0.057h0.056
		c0.112-0.227,0.31-0.376,0.597-0.447c0.261,0,0.478,0.08,0.652,0.242v0.131c0,0.422-0.149,0.69-0.447,0.803
		c-0.113,0.261-0.348,0.428-0.709,0.503l-0.223,0.204h-0.243l-0.429,0.111c-0.1,0.025-0.242,0.039-0.429,0.039
		c-0.1,0-0.205-0.025-0.317-0.076h-0.242l-0.654-0.354l-0.168-0.055l-0.392-0.523l-0.223-0.242l-0.41-0.934l-0.15-0.875l0.056-0.225
		l-0.168-0.205l0.093-0.26l-0.093-0.412l0.131-0.129l0.037-0.244l-0.056-0.224l0.056-0.335l-0.093-0.3l0.093-0.093v-0.299
		l-0.131-0.055l-0.354,0.073l-0.335-0.224h-0.057c-0.372,0-0.558-0.2-0.558-0.604v-0.056l-0.225-0.36l0.354-0.341l0.467,0.074
		l0.243-0.036l0.354,0.093h0.392v-0.373l-0.243-0.521l0.243-0.131l-0.094-0.281l0.019-0.576l-0.15-0.243
		c-0.087-0.136-0.129-0.261-0.129-0.373c0-0.137,0.031-0.25,0.092-0.336l0.056-0.262l0.15-0.148c0.335-0.062,0.56-0.094,0.671-0.094
		c0.398,0,0.616,0.183,0.653,0.545l-0.056,0.092c0.075,0.113,0.111,0.22,0.111,0.319c0,0.013-0.005,0.044-0.017,0.094l-0.038,0.113
		l-0.02,0.131l0.075,0.244l-0.017,0.094l0.036,0.264l-0.167,0.225l0.093,0.374l-0.075,0.45l0.149,0.17l-0.149,0.336l0.578-0.092
		l1.026,0.092l0.821-0.131l0.279,0.02l0.094-0.02h0.727C152.409,67.846,152.603,67.984,152.603,68.258"/>
	<path fill="#979797" d="M159.26,73.424c0,0.148-0.111,0.335-0.334,0.56c-0.064,0.198-0.156,0.36-0.281,0.485l-0.112,0.02
		l-0.205,0.354l-0.335,0.056l-0.354,0.224l-0.187,0.336h-0.205c-0.137,0.053-0.249,0.084-0.337,0.097l-0.111,0.146h-0.168
		c-0.162,0-0.317,0.105-0.466,0.317l-0.261-0.226h-0.225c-0.161,0-0.298-0.03-0.41-0.092h-0.317l-0.148-0.093
		c-0.473-0.073-0.772-0.253-0.896-0.536v-0.056l-0.224-0.112l-0.111-0.312l-0.225-0.149v-0.277l-0.223-0.813v-0.666l0.111-0.297V72
		l0.094-0.295l-0.019-0.131l0.131-0.222l-0.038,0.038c0-0.111,0.031-0.23,0.094-0.354v-0.095l-0.056-0.448
		c0-0.209,0.092-0.396,0.279-0.56c0.013-0.022,0.019-0.062,0.019-0.11c0-0.05-0.022-0.152-0.066-0.308
		c-0.043-0.156-0.065-0.265-0.065-0.327c0-0.148,0.037-0.305,0.112-0.467c0.1,0.15,0.242,0.225,0.429,0.225h0.056
		c0.025-0.05,0.081-0.105,0.169-0.168c0.098-0.311,0.235-0.572,0.41-0.783l0.074-0.076c0-0.049,0.037-0.191,0.112-0.428h0.148
		l0.039-0.093l0.148-0.038c0.063-0.099,0.103-0.158,0.122-0.177s0.153-0.097,0.401-0.233c0.05-0.086,0.125-0.168,0.223-0.242
		c0.05-0.025,0.113-0.051,0.187-0.075l0.075-0.111c0.336-0.112,0.546-0.168,0.634-0.168c0.099,0,0.193,0.024,0.279,0.074
		l0.094-0.019l0.131,0.075c0.149,0.112,0.298,0.204,0.447,0.279l0.317,0.243v0.074c0.287,0.224,0.429,0.541,0.429,0.951
		l-0.056,0.186l0.056,0.615l-0.167,0.113l-0.188,0.485l-0.354,0.392l-0.019,0.297c-0.398,0.287-0.765,0.518-1.1,0.69
		c-0.112,0.175-0.287,0.263-0.523,0.263h-0.056l-0.354,0.223h-0.298l-0.448,0.187l-0.335-0.168h-0.039
		c-0.025,0.101-0.05,0.25-0.075,0.451l-0.148,0.112l-0.019,0.226l-0.112,0.319c0.025,0.299,0.037,0.492,0.037,0.58l-0.062,0.057
		c0,0.163-0.004,0.282-0.016,0.357c0,0.012-0.004,0.031-0.014,0.056v0.056c0,0.102,0.05,0.182,0.148,0.245
		c0.038,0.15,0.1,0.244,0.186,0.281l0.131,0.112l0.412,0.113v0.057l0.148,0.037h0.635l0.373-0.056l0.186-0.129l0.112-0.036
		l0.186-0.277l0.094-0.019l0.466-0.147c0.05-0.086,0.131-0.159,0.242-0.221l0.056-0.093c0.249-0.049,0.393-0.178,0.429-0.387
		c0.175-0.173,0.398-0.259,0.672-0.259h0.074C159.143,73.025,159.26,73.248,159.26,73.424 M157.414,68.052
		c0-0.037-0.018-0.112-0.056-0.224l-0.092-0.019l-0.039,0.019h-0.074c-0.025,0.013-0.049,0.018-0.074,0.018
		c-0.013,0-0.032-0.005-0.056-0.018h-0.056l-0.186,0.131l-0.169,0.018l-0.093,0.038l-0.317,0.41l-0.206,0.149l-0.298,0.521
		l-0.167,0.111c-0.038,0.213-0.125,0.393-0.262,0.543l-0.075,0.129c0.137-0.086,0.293-0.129,0.467-0.129l0.131-0.058l0.056-0.168
		l0.26,0.019l0.15-0.224h0.112l0.205,0.075l0.093-0.279h0.131V68.91l0.242-0.057l0.056-0.056l0.038-0.167l0.242-0.356
		C157.402,68.214,157.414,68.139,157.414,68.052"/>
	<path fill="#979797" d="M167.86,67.398l-0.187,0.243l0.148,0.446l-0.242,0.281l-0.093,0.392l-0.055,0.093l0.036,0.094
		c0,0.174-0.044,0.305-0.13,0.392l-0.037,0.056v0.074c0.037,0.087,0.056,0.168,0.056,0.243c0,0.063-0.006,0.104-0.019,0.13
		l0.019,0.075l-0.075,0.205l0.056,0.224l-0.149,0.149l0.056,0.261l0.112,0.131l-0.168,0.15v0.298l-0.13,0.298l0.092,0.298
		l-0.112,0.15l0.187,0.131l-0.262,0.429l-0.017,0.057l0.186,0.035l-0.13,0.43v0.074c0,0.088-0.008,0.156-0.019,0.207l0.019,0.056
		l0.298,0.036l0.242,0.373l-0.13,0.279l0.205-0.018c0.075,0.148,0.118,0.279,0.131,0.391l-0.281,0.28
		c-0.086,0.087-0.211,0.174-0.373,0.263l-0.317,0.166l-0.093-0.094l-0.186,0.094l-0.579-0.668v-0.315
		c-0.073-0.248-0.112-0.476-0.112-0.688v-0.112l-0.111-1.094l0.15-0.779l-0.114-0.447l-0.317,0.523l-0.167,0.484l-0.149,0.075
		l-0.261,0.412l-0.467,0.432l-0.129,0.226l-0.412,0.356l-0.092,0.244l-0.598,0.376l-0.633,0.712l-0.356,0.075l-0.242,0.188
		c-0.31-0.013-0.547-0.13-0.708-0.354c-0.56-0.275-0.852-0.669-0.877-1.181l0.094-0.056l-0.019-0.11l-0.019-0.226l-0.112-0.244
		l0.112-0.261l0.038-0.395l0.13-0.617v-0.074c-0.013-0.025-0.019-0.051-0.019-0.075c0-0.05,0.012-0.11,0.037-0.187
		c-0.012-0.024-0.018-0.074-0.018-0.149c0-0.088,0.037-0.231,0.112-0.431l0.131-0.055c-0.075-0.064-0.113-0.132-0.113-0.209v-0.11
		v-0.132c0-0.149,0.075-0.26,0.224-0.336c0.037-0.125,0.106-0.25,0.205-0.375l-0.093-0.149l0.223-0.28v-0.074
		c0-0.235,0.081-0.453,0.243-0.653l-0.018-0.335l0.074-0.074V68.07c-0.012-0.024-0.018-0.043-0.018-0.056
		c0-0.075,0.025-0.137,0.075-0.187v-0.111c0.048-0.125,0.179-0.313,0.391-0.561c0.211-0.25,0.367-0.467,0.467-0.653l0.092,0.094
		l0.206-0.094l0.093-0.036l0.615-0.281l1.437,0.075v0.131l0.448,0.095c0.285,0,0.471,0.092,0.559,0.278
		c0-0.036,0.006-0.081,0.018-0.131v-0.075l0.392,0.356l0.354,0.073l0.672-0.168l0.242,0.468L167.86,67.398z M166.088,68.369
		l-0.075-0.131l-0.15-0.037l-0.577-0.467l-0.373-0.056h-0.298l-0.039-0.075l-0.148,0.075l-0.169-0.075h-0.485l0.056,0.075
		l-0.429,0.149l-0.075,0.093l-0.056,0.019c-0.223,0.188-0.379,0.342-0.465,0.467l-0.131,0.447l-0.075,0.17l0.187,0.26l-0.318,0.244
		l0.039,0.074c-0.137,0.236-0.205,0.465-0.205,0.69l-0.148,0.187l-0.003,0.334l-0.148,0.168l-0.037,0.17l-0.057,0.037v0.26
		l-0.056,0.094c0,0.148-0.012,0.267-0.037,0.354l0.037,0.094l-0.168,0.354l0.075,0.111l-0.13,0.187l0.13,0.354l-0.205,0.261
		l0.038,0.354v0.057l0.073,0.037l0.094-0.018c0.062-0.063,0.124-0.119,0.187-0.17l-0.038-0.15l0.26-0.035l0.056-0.131l1.097-0.896
		l0.11-0.038l0.131-0.317c0.075-0.025,0.179-0.074,0.316-0.149l0.122-0.296h0.146l-0.055-0.316l0.261-0.037
		c0.025-0.051,0.065-0.111,0.121-0.187c0.055-0.075,0.114-0.144,0.177-0.206l0.951-1.268l0.15-0.28l-0.02-0.074l0.131-0.205
		l0.038-0.206l0.168-0.148L166.088,68.369z"/>
	<path fill="#979797" d="M183.172,63.818c0,0.248-0.147,0.496-0.446,0.746l-0.149-0.095l-0.299,0.169l-0.373-0.728
		c-0.025-0.187-0.074-0.341-0.15-0.466l-0.11,0.056l-0.317-0.168l-0.111-0.019l-0.244,0.149l-0.391-0.112l-0.129,0.057
		c-0.113,0.124-0.226,0.185-0.337,0.185c-0.05,0-0.093-0.006-0.131-0.017l-0.005,0.182c-0.123,0.2-0.279,0.443-0.464,0.73
		c-0.011,0.123-0.056,0.354-0.13,0.689l-0.168,0.112l-0.073,0.206l-0.093,0.167l0.094,0.373l-0.213,0.337l-0.07,0.279l-0.07,0.149
		v0.261l-0.262,0.672l0.036,0.317c-0.011,0.05-0.08,0.224-0.205,0.523l-0.019,0.073c0.123-0.049,0.229-0.082,0.316-0.094h0.11h0.167
		h0.057h0.631l0.055-0.035c0.148-0.025,0.234-0.039,0.26-0.039c0.125,0,0.26,0.024,0.408,0.074h0.391h0.26h0.166l0.241,0.059
		c0.445,0.012,0.669,0.195,0.669,0.549c0,0.1-0.018,0.221-0.056,0.359l-0.839,0.246l-0.485-0.076c-0.138,0.05-0.366,0.105-0.69,0.17
		l-0.094-0.131c-0.087,0.086-0.203,0.131-0.354,0.131h-0.206l-0.521,0.242l-0.263-0.131h-0.092
		c-0.101,0.125-0.226,0.206-0.373,0.242l0.017,0.112l-0.072,0.262l0.11,0.317l-0.241,0.484l0.06,0.747l-0.106,0.257l0.102,0.26
		l-0.223,0.412l0.055,0.224c0.013,0.013,0.019,0.044,0.019,0.094c0,0.013-0.024,0.146-0.073,0.401
		c-0.05,0.256-0.074,0.507-0.074,0.755v0.169c0.011,0.012,0.08,0.093,0.203,0.242l-0.129,0.318l0.129,0.373l-0.056,0.297
		l0.192,0.914l0.052,1.008l0.278,0.373l-0.166,0.412c0.147,0.26,0.223,0.471,0.223,0.635v0.055c0,0.023,0.006,0.057,0.02,0.093
		v0.095c0,0.471-0.275,0.721-0.822,0.746l-0.149-0.299l-0.223-0.131l-0.037-0.336l-0.373-1.045v-0.205
		c-0.05-0.225-0.075-0.354-0.075-0.391c0-0.063,0.006-0.106,0.02-0.131l-0.075-0.317l0.075-0.317l-0.075-0.205v-0.41l-0.149-1.176
		V75.27v-0.205v-0.262l-0.111-0.242l0.111-0.203v-0.972l0.094-0.112v-0.67l0.056-0.149l-0.056-0.579l0.074-0.223
		c0.024-0.211,0.1-0.685,0.223-1.418h-0.074l-0.242-0.074h-0.279l-0.522,0.074l-0.317-0.074l-0.541,0.111l-0.186-0.037
		c-0.062,0.012-0.137,0.018-0.224,0.018c-0.548-0.248-0.84-0.441-0.877-0.577l-0.094-0.317c0.162-0.484,0.387-0.728,0.672-0.728
		c0.013,0,0.224,0.043,0.634,0.131l1.083,0.037l0.521-0.094h0.447l0.168,0.019l0.057-0.242l0.038-0.541l0.092-0.223l-0.055-0.373
		c0-0.137,0.05-0.256,0.149-0.355v-0.204l0.193-0.226l0.09-0.56l0.071-0.092l-0.056-0.243c0.147-0.174,0.223-0.316,0.223-0.428
		l-0.02-0.112c0,0.099,0.094-0.187,0.28-0.858l0.132-0.094v-0.41l0.055,0.094v-0.057c0-0.212,0.088-0.365,0.262-0.466l0.111-0.169
		l0.224-0.54h0.039c0.136,0,0.204-0.081,0.204-0.243v-0.074l0.523-0.187h0.147c0.162-0.05,0.329-0.074,0.504-0.074h0.131
		l0.093-0.038l0.412-0.092l0.483,0.111c0.024,0.012,0.075,0.031,0.149,0.056c0.125-0.05,0.211-0.075,0.26-0.075
		c0.176,0,0.338,0.131,0.486,0.393l0.26,0.187l0.188,0.373l0.281,0.278l0.072,0.523V63.818z"/>
	<path fill="#979797" d="M189.049,70.588l-0.112,0.336c0,0.324-0.019,0.578-0.058,0.766l-0.111,0.186v0.206l-0.092,0.132
		l-0.057,0.26l-0.205,0.205l-0.131,0.465l-0.148,0.057l-0.076,0.205l-0.223,0.131l-0.149,0.317l-0.226,0.112l-0.017,0.223
		l-0.354,0.131c-0.162,0.225-0.361,0.367-0.598,0.429l-0.074,0.019c-0.174,0.263-0.404,0.393-0.689,0.393
		c-0.125,0.074-0.268,0.112-0.43,0.112l-0.186,0.131l-0.188,0.056l-0.242,0.186h-0.242l-0.262,0.057l-0.317-0.131l-0.802-0.057
		l-0.279-0.429l-0.41-0.429l0.094-0.298l-0.281-0.634l0.094-0.243l-0.055-0.448l0.055-0.279v-0.373c0-0.236,0.064-0.41,0.193-0.522
		c0.013-0.123,0.097-0.329,0.25-0.615h0.098l-0.057-0.131l0.057-0.261v-0.28c0.1-0.111,0.156-0.187,0.168-0.224l-0.057-0.262V70.01
		c0.086-0.174,0.131-0.354,0.131-0.541l0.393-0.541c0.061-0.049,0.104-0.086,0.129-0.11l-0.018-0.075h0.074l0.279-0.316l0.02-0.43
		l0.466-0.168c0.175-0.111,0.286-0.298,0.336-0.561h0.243c0.136-0.074,0.261-0.11,0.373-0.11c0.111,0,0.217,0.024,0.316,0.073
		l0.205,0.019l0.484-0.186l0.262,0.241l0.205,0.132h0.149l0.28,0.149h0.148c0.161,0.148,0.348,0.354,0.559,0.615l0.039,0.094
		l0.131,0.074l0.391,0.504l0.354,0.877v0.186L189.049,70.588z M187.817,71.029l-0.019-0.093c-0.088-0.087-0.137-0.179-0.15-0.279
		l0.057-0.092l-0.168-0.354l0.038-0.354l-0.075-0.094c-0.162-0.123-0.25-0.223-0.262-0.297c-0.111-0.049-0.167-0.174-0.167-0.373
		l-0.112-0.019l-0.225-0.371l-0.167-0.131l-0.392-0.147l-0.149-0.039c-0.075,0-0.125-0.023-0.149-0.073l-0.373,0.407l-0.242,0.52
		l-0.391,0.204l-0.057,0.203l-0.186,0.094l-0.076,0.481l-0.225,0.11c-0.05,0.173-0.072,0.335-0.072,0.482l-0.301,0.278l0.094,0.056
		c0,0.149-0.063,0.278-0.188,0.39c-0.041,0.11-0.098,0.235-0.166,0.37v0.147v0.074v0.224l-0.206,0.501l0.037,0.093v0.519
		l-0.073,0.26l0.018,0.259l0.168,0.241l0.261,0.092l0.093,0.038h0.15h0.482l0.075-0.187h0.075c0.074,0,0.117,0.018,0.13,0.057
		l0.168-0.057l0.147,0.057l0.244-0.17l0.035-0.058l0.168-0.036c0.088-0.139,0.293-0.276,0.615-0.414l0.037-0.095l0.373-0.263
		l0.204-0.301l0.299-0.148l0.021-0.093l0.097-0.205v-0.243l0.224-0.186l0.074-0.131l0.094-0.11c-0.05-0.149-0.074-0.254-0.074-0.316
		c0-0.112,0.037-0.229,0.111-0.354L187.817,71.029z"/>
	<path fill="#979797" d="M197.516,68.015l-0.15,0.615l-0.689,0.093l-0.373,0.242l-0.243-0.111l-0.261,0.146l-0.279,0.108
		l-0.188,0.129l-0.006,0.072l-0.388,0.193l-0.261,0.34h-0.131c-0.198,0.212-0.342,0.344-0.428,0.393l-0.262,0.43l-0.092,0.036
		c-0.039,0.1-0.081,0.249-0.131,0.448l-0.262,0.092l-0.111,0.226l-0.148,0.187l-0.037,0.278l-0.149,0.056v0.281l-0.056,0.057
		c0.037,0.061,0.08,0.13,0.131,0.203l-0.281,0.113l-0.036,0.242l-0.187,0.316l0.111,0.244l-0.242,0.334
		c0.024,0.125,0.037,0.211,0.037,0.262v0.074c-0.013,0.037-0.019,0.068-0.019,0.094l0.037,0.167l0.317,0.337l-0.242,0.429
		l-0.223,0.167l-0.523,0.262l-0.691-0.279v-0.43l-0.072-0.168l0.055-0.279c-0.024-0.199-0.039-0.348-0.039-0.448
		c0-0.036,0.007-0.086,0.021-0.149v-0.129l-0.021-0.187c-0.086-0.087-0.129-0.187-0.129-0.3c0-0.098,0.043-0.211,0.129-0.336
		c0-0.062-0.01-0.248-0.035-0.56l0.057-0.055l-0.057-0.243l0.035-0.225l-0.035-0.129l0.057-0.43l-0.113-0.186l0.076-0.206
		l-0.076-0.242c0.013-0.075,0.019-0.175,0.019-0.299c0-0.187-0.024-0.312-0.074-0.373l0.074-0.111l-0.074-0.337l-0.169-0.242
		l0.094-0.298l-0.074-0.112l-0.075-0.447v-0.15c-0.062-0.072-0.093-0.167-0.093-0.279c0-0.248,0.273-0.459,0.822-0.635l0.465,0.094
		l0.092,0.355l0.188,0.242L192.05,68.5c0.038,0.248,0.081,0.521,0.131,0.818l0.056,0.301c0.014,0.025,0.024,0.093,0.039,0.203
		c0,0.076-0.033,0.156-0.095,0.244l0.056,0.373l-0.037,0.41l-0.074,0.188l0.056,0.072l0.038,0.188
		c0.072-0.087,0.117-0.18,0.129-0.279l0.075-0.281c0.038-0.072,0.094-0.129,0.169-0.166l0.072-0.28l0.263-0.149l0.037-0.224
		l0.204-0.224l0.15-0.28c0.162-0.173,0.317-0.286,0.467-0.336l0.037-0.056l0.168-0.261l0.187-0.038l0.056-0.056l0.075-0.111
		l0.204-0.112l0.113-0.131l0.111,0.02l0.148-0.075l0.074-0.11l0.224-0.113l0.317-0.205l0.449-0.149
		c0.172-0.024,0.267-0.036,0.278-0.036v0.017c-0.012,0-0.019,0.008-0.019,0.02h0.019c0.05,0,0.125-0.024,0.224-0.075
		c0.063-0.049,0.149-0.074,0.263-0.074c0.048,0,0.137,0.013,0.26,0.037C197.297,67.579,197.478,67.729,197.516,68.015"/>
	<path fill="#979797" d="M207.643,72.92c0,0.137-0.05,0.248-0.148,0.336c-0.1,0.148-0.262,0.305-0.483,0.466l-0.187,0.131
		l-0.166,0.224l-0.168,0.074l-0.26,0.168l-0.186,0.02l-0.074,0.074c-0.248,0.074-0.439,0.199-0.576,0.373
		c-0.086,0.062-0.166,0.093-0.242,0.093c-0.047,0-0.092-0.007-0.129-0.017c-0.209,0.123-0.483,0.185-0.816,0.185
		c-0.285,0-0.473-0.025-0.559-0.074l-0.334-0.187l-0.111-0.187v-0.056c0-0.161-0.07-0.292-0.213-0.393l-0.076-0.373l-0.155-0.168
		l-0.097-0.689v-0.41v-0.298l0.057-0.113c-0.038-0.073-0.057-0.153-0.057-0.243c0.063-0.521,0.094-0.85,0.094-0.988l-0.168-0.334
		l0.168-0.281l0.057-0.465l-0.037-0.318l0.11-0.279l-0.11-0.373l0.201-0.261l0.021-0.168v-0.653v-0.131V66.82l0.056-0.802
		l-0.056-0.149v-0.559v-0.504v-0.188l0.109-1.118c0.51-0.125,0.735-0.187,0.674-0.187c0.195,0,0.353,0.105,0.474,0.317l0.037,0.147
		l0.272,0.281l-0.074,0.393v0.072c-0.035,0.237-0.078,0.393-0.131,0.467l0.057,0.392l0.074,0.356l-0.131,0.39
		c0,0.212-0.031,0.403-0.092,0.579c0,0.062-0.014,0.162-0.039,0.298l-0.019,0.112l0.149,0.205l-0.056,0.205
		c0.037,0.1,0.056,0.168,0.056,0.205c0,0.074-0.031,0.174-0.092,0.299l0.036,0.168l-0.112,0.597v0.392l-0.129,0.391l0.074,0.354
		l-0.074,0.821l0.055,0.094l-0.092,0.43l-0.039,0.521c-0.024,0.075-0.037,0.119-0.037,0.13c0,0.212-0.006,0.388-0.019,0.522
		l0.056,0.261v0.28l0.111,0.242l-0.017,0.094c0.073,0.063,0.141,0.16,0.202,0.3h0.168l0.24,0.073l0.111-0.148l0.168-0.02
		c0.073-0.024,0.129-0.036,0.167-0.036h0.056c0.125-0.025,0.223-0.087,0.297-0.188l0.111-0.056c0.086-0.137,0.229-0.23,0.428-0.28
		c0.061-0.05,0.179-0.149,0.352-0.298c0-0.174,0.104-0.304,0.316-0.393c0.185,0,0.308-0.03,0.369-0.092
		c0.248,0.037,0.406,0.103,0.474,0.194C207.609,72.482,207.643,72.658,207.643,72.92"/>
	<path fill="#979797" d="M213.667,72.229c0,0.286-0.05,0.468-0.149,0.54l-0.093,0.075l-0.095,0.262l-0.297,0.093
		c-0.088,0.199-0.219,0.355-0.392,0.467l-0.169,0.056l-0.242,0.263l-0.224,0.055c-0.086,0.224-0.267,0.343-0.54,0.354
		c-0.025,0.036-0.081,0.111-0.169,0.224c-0.187,0.125-0.379,0.199-0.577,0.225l-0.094,0.02l-0.131,0.166h-0.373l-0.299,0.224
		l-0.764-0.56l-0.354-0.727l-0.02-0.914l-0.074-0.223l0.223-1.644l0.074-0.075c-0.037-0.186-0.055-0.365-0.055-0.539
		c0-0.113,0.037-0.344,0.111-0.691l0.094-0.43c-0.025-0.072-0.074-0.153-0.15-0.242l0.111-0.354l0.039-0.429l0.036-0.056
		c-0.05-0.111-0.08-0.236-0.092-0.373c0.012-0.025,0.024-0.06,0.036-0.104c0.012-0.042,0.02-0.078,0.02-0.104
		c-0.039-0.11-0.056-0.217-0.056-0.316c0-0.298,0.167-0.436,0.504-0.41h0.224c0.147-0.061,0.241-0.092,0.278-0.092
		c0.25,0,0.417,0.136,0.504,0.41v0.074c0.05,0.148,0.075,0.293,0.075,0.429c0,0.112-0.014,0.192-0.037,0.243l-0.131,0.933
		l0.131,0.261c0,0.224-0.074,0.422-0.225,0.598l0.074,0.223l-0.242,0.709c-0.024,0.311-0.055,0.547-0.094,0.708v0.468l-0.111,0.26
		l0.019,0.187l-0.036,0.429l0.036,0.336l0.279,0.225l0.226-0.037l0.036-0.057l0.149,0.019l0.242-0.074l0.205-0.205l0.074-0.112
		l0.131-0.019l0.037-0.093l0.057-0.075l0.111,0.075l0.187-0.186l0.11,0.017l0.039-0.13h0.037l0.053-0.15l0.168-0.074l0.356-0.168
		c0.286-0.199,0.567-0.297,0.841-0.297h0.074C213.523,71.98,213.617,72.093,213.667,72.229 M211.765,62.342
		c0,0.148-0.101,0.285-0.298,0.408v0.037c-0.238,0.285-0.443,0.447-0.617,0.482l-0.281,0.335l-0.186,0.241l-0.432,0.107
		l-0.186,0.266l-0.297,0.152l-0.484,0.436l-0.297-0.281l0.055-0.465l0.207-0.337c0.012-0.173,0.111-0.323,0.297-0.446v-0.074
		l0.113-0.075l0.019-0.279l0.298-0.075v-0.168l0.223-0.037c0.051-0.248,0.156-0.43,0.318-0.541l0.057-0.037l0.11-0.112l0.149-0.447
		C211.355,61.63,211.765,61.932,211.765,62.342"/>
	<path fill="#979797" d="M223.086,63.818c0,0.248-0.147,0.496-0.447,0.746l-0.148-0.095l-0.299,0.169l-0.373-0.728
		c-0.025-0.187-0.075-0.341-0.15-0.466l-0.111,0.056l-0.316-0.168l-0.111-0.019l-0.244,0.149l-0.392-0.112l-0.129,0.057
		c-0.112,0.124-0.226,0.185-0.336,0.185c-0.05,0-0.093-0.006-0.131-0.017l-0.005,0.182c-0.123,0.2-0.279,0.443-0.465,0.73
		c-0.01,0.123-0.056,0.354-0.129,0.689l-0.166,0.112l-0.076,0.206l-0.092,0.167l0.094,0.373l-0.213,0.337l-0.07,0.279l-0.071,0.149
		v0.261l-0.261,0.672l0.035,0.317c-0.01,0.05-0.079,0.224-0.204,0.523l-0.019,0.073c0.123-0.049,0.229-0.082,0.316-0.094h0.109
		h0.168h0.056h0.632l0.055-0.035c0.148-0.025,0.234-0.039,0.26-0.039c0.125,0,0.26,0.024,0.408,0.074h0.391h0.259h0.167l0.241,0.059
		c0.444,0.012,0.669,0.195,0.669,0.549c0,0.1-0.018,0.221-0.057,0.359l-0.838,0.246l-0.485-0.076c-0.138,0.05-0.367,0.105-0.69,0.17
		l-0.094-0.131c-0.087,0.086-0.204,0.131-0.354,0.131h-0.207l-0.521,0.242l-0.263-0.131h-0.092c-0.1,0.125-0.225,0.206-0.373,0.242
		l0.018,0.112l-0.072,0.262l0.11,0.317l-0.242,0.484l0.06,0.747l-0.105,0.257l0.102,0.26l-0.223,0.412l0.055,0.224
		c0.012,0.013,0.019,0.044,0.019,0.094c0,0.013-0.024,0.146-0.073,0.401c-0.05,0.256-0.074,0.507-0.074,0.755v0.169
		c0.01,0.012,0.08,0.093,0.203,0.242l-0.129,0.318l0.129,0.373l-0.056,0.297l0.192,0.914l0.051,1.008l0.279,0.373l-0.166,0.412
		c0.147,0.26,0.223,0.471,0.223,0.635v0.055c0,0.023,0.006,0.057,0.02,0.093v0.095c0,0.471-0.275,0.721-0.822,0.746l-0.149-0.299
		l-0.224-0.131l-0.037-0.336l-0.373-1.045v-0.205c-0.049-0.225-0.074-0.354-0.074-0.391c0-0.063,0.006-0.106,0.02-0.131
		l-0.076-0.317l0.076-0.317l-0.076-0.205v-0.41l-0.149-1.176V75.27v-0.205v-0.262l-0.11-0.242l0.11-0.203v-0.972l0.095-0.112v-0.67
		l0.055-0.149l-0.055-0.579l0.073-0.223c0.024-0.211,0.101-0.685,0.224-1.418h-0.074l-0.242-0.074h-0.279l-0.523,0.074l-0.316-0.074
		l-0.541,0.111l-0.186-0.037c-0.063,0.012-0.138,0.018-0.225,0.018c-0.548-0.248-0.84-0.441-0.877-0.577l-0.094-0.317
		c0.162-0.484,0.387-0.728,0.672-0.728c0.014,0,0.225,0.043,0.634,0.131l1.083,0.037l0.521-0.094h0.447l0.168,0.019l0.057-0.242
		l0.037-0.541l0.093-0.223l-0.056-0.373c0-0.137,0.051-0.256,0.149-0.355v-0.204l0.194-0.226l0.09-0.56l0.07-0.092l-0.055-0.243
		c0.147-0.174,0.223-0.316,0.223-0.428l-0.02-0.112c0,0.099,0.094-0.187,0.28-0.858l0.131-0.094v-0.41l0.056,0.094v-0.057
		c0-0.212,0.088-0.365,0.262-0.466l0.111-0.169l0.223-0.54h0.039c0.137,0,0.205-0.081,0.205-0.243v-0.074l0.522-0.187h0.147
		c0.162-0.05,0.33-0.074,0.504-0.074h0.132l0.092-0.038l0.412-0.092l0.483,0.111c0.025,0.012,0.076,0.031,0.149,0.056
		c0.125-0.05,0.212-0.075,0.261-0.075c0.176,0,0.338,0.131,0.485,0.393l0.261,0.187l0.188,0.373l0.281,0.278l0.072,0.523V63.818z"/>
	<path fill="#979797" d="M228.252,73.424c0,0.148-0.111,0.335-0.334,0.56c-0.064,0.198-0.156,0.36-0.281,0.485l-0.111,0.02
		l-0.205,0.354l-0.335,0.056l-0.354,0.224l-0.187,0.336h-0.205c-0.138,0.053-0.249,0.084-0.337,0.097l-0.112,0.146h-0.167
		c-0.162,0-0.316,0.105-0.466,0.317l-0.261-0.226h-0.225c-0.162,0-0.299-0.03-0.41-0.092h-0.317l-0.147-0.093
		c-0.474-0.073-0.773-0.253-0.896-0.536v-0.056l-0.225-0.112l-0.111-0.312l-0.225-0.149v-0.277l-0.223-0.813v-0.666l0.111-0.297V72
		l0.094-0.295l-0.02-0.131l0.131-0.222l-0.037,0.038c0-0.111,0.031-0.23,0.094-0.354v-0.095l-0.057-0.448
		c0-0.209,0.093-0.396,0.279-0.56c0.014-0.022,0.02-0.062,0.02-0.11c0-0.05-0.022-0.152-0.066-0.308
		c-0.043-0.156-0.064-0.265-0.064-0.327c0-0.148,0.037-0.305,0.111-0.467c0.1,0.15,0.242,0.225,0.43,0.225h0.056
		c0.024-0.05,0.08-0.105,0.169-0.168c0.098-0.311,0.234-0.572,0.409-0.783l0.075-0.076c0-0.049,0.037-0.191,0.111-0.428h0.148
		l0.039-0.093l0.148-0.038c0.063-0.099,0.103-0.158,0.121-0.177c0.02-0.019,0.153-0.097,0.401-0.233
		c0.05-0.086,0.125-0.168,0.223-0.242c0.05-0.025,0.113-0.051,0.187-0.075l0.076-0.111c0.336-0.112,0.545-0.168,0.633-0.168
		c0.1,0,0.193,0.024,0.279,0.074l0.094-0.019l0.132,0.075c0.149,0.112,0.298,0.204,0.446,0.279l0.317,0.243v0.074
		c0.287,0.224,0.429,0.541,0.429,0.951l-0.056,0.186l0.056,0.615l-0.166,0.113l-0.188,0.485l-0.354,0.392l-0.02,0.297
		c-0.398,0.287-0.766,0.518-1.1,0.69c-0.112,0.175-0.287,0.263-0.523,0.263h-0.057l-0.354,0.223h-0.298l-0.448,0.187l-0.334-0.168
		h-0.039c-0.025,0.101-0.051,0.25-0.076,0.451l-0.147,0.112l-0.019,0.226l-0.112,0.319c0.024,0.299,0.036,0.492,0.036,0.58
		l-0.061,0.057c0,0.163-0.005,0.282-0.017,0.357c0,0.012-0.005,0.031-0.015,0.056v0.056c0,0.102,0.051,0.182,0.148,0.245
		c0.038,0.15,0.1,0.244,0.186,0.281l0.131,0.112l0.412,0.113v0.057l0.148,0.037h0.635l0.373-0.056l0.186-0.129l0.113-0.036
		l0.186-0.277l0.094-0.019l0.467-0.147c0.049-0.086,0.131-0.159,0.241-0.221l0.056-0.093c0.25-0.049,0.393-0.178,0.43-0.387
		c0.175-0.173,0.398-0.259,0.672-0.259h0.074C228.135,73.025,228.252,73.248,228.252,73.424 M226.406,68.052
		c0-0.037-0.018-0.112-0.057-0.224l-0.092-0.019l-0.039,0.019h-0.074c-0.024,0.013-0.049,0.018-0.073,0.018
		c-0.013,0-0.032-0.005-0.056-0.018h-0.057l-0.186,0.131l-0.17,0.018l-0.092,0.038l-0.317,0.41l-0.206,0.149l-0.299,0.521
		l-0.166,0.111c-0.038,0.213-0.125,0.393-0.262,0.543l-0.076,0.129c0.138-0.086,0.293-0.129,0.468-0.129l0.131-0.058l0.056-0.168
		l0.26,0.019l0.15-0.224h0.112l0.204,0.075l0.094-0.279h0.13V68.91l0.243-0.057l0.057-0.056l0.037-0.167l0.242-0.356
		C226.395,68.214,226.406,68.139,226.406,68.052"/>
</g>
</svg>
